<svg xmlns="http://www.w3.org/2000/svg" xmlns:xlink="http://www.w3.org/1999/xlink" xml:space="preserve" version="1.1" style="shape-rendering:geometricPrecision;text-rendering:geometricPrecision;image-rendering:optimizeQuality;" viewBox="0 0 847 1058.75" x="0px" y="0px" fill-rule="evenodd" clip-rule="evenodd"><defs><style type="text/css">
   
    .fil0 {fill:black}
   
  </style></defs><g><path class="fil0" d="M339 88l-78 -3c-19,31 -38,61 -57,91l36 69 -26 42 -78 -3 -57 91 51 95 78 3 37 69 78 3 23 43 -42 66 50 95 78 3 37 69 107 4c19,-31 38,-61 57,-91l-36 -69 26 -42 78 3c19,-30 38,-61 57,-91l-37 -69 41 -66 -36 -69 41 -67 -50 -94 -107 -4 -42 66 -49 -2 -23 -43 42 -66 -51 -95 -107 -4 -41 66zm352 152c-21,-33 -74,-15 -69,25 13,-26 43,-37 69,-25zm-227 -143c-22,-33 -74,-15 -70,25 13,-26 44,-37 70,-25zm-124 64c-21,-34 -74,-15 -69,24 13,-25 43,-36 69,-24zm116 72c-22,-33 -74,-15 -70,25 13,-26 44,-37 70,-25zm114 72c-22,-34 -74,-16 -70,24 13,-25 44,-36 70,-24zm115 72c-21,-33 -74,-15 -69,25 12,-26 43,-37 69,-25zm-4 135c-21,-33 -74,-15 -69,25 13,-26 43,-36 69,-25zm-115 -72c-22,-33 -74,-15 -70,25 13,-26 44,-37 70,-25zm-115 -72c-21,-33 -74,-15 -69,25 12,-26 43,-37 69,-25zm-115 -72c-21,-33 -74,-15 -69,25 12,-26 43,-37 69,-25zm-117 61c-21,-33 -74,-15 -69,25 12,-26 43,-36 69,-25zm113 71c-22,-33 -74,-15 -70,25 13,-26 44,-37 70,-25zm115 73c-21,-34 -73,-16 -69,24 13,-26 44,-36 69,-24zm115 72c-21,-34 -74,-16 -69,24 13,-25 43,-36 69,-24zm-119 63c-21,-34 -74,-15 -69,24 12,-25 43,-36 69,-24zm116 72c-22,-33 -74,-15 -70,25 13,-26 44,-37 70,-25zm-220 -446l-62 -2 -33 53 29 56 62 2 34 -53c-10,-19 -20,-37 -30,-56zm159 386l62 2 33 -53c-9,-19 -19,-37 -29,-55l-62 -3 -34 53 30 56zm-19 -123l-30 -55 -62 -3 -33 54 29 55c21,1 41,1 62,2l34 -53zm-29 -82l33 -53 -29 -56 -62 -2 -34 53 30 56 62 2zm120 -64l33 -53 -29 -55 -63 -2 -33 53 29 55c21,1 42,2 63,2zm137 87l37 69 -50 79 -78 -3 -33 53 37 69 -50 80c-31,-1 -63,-3 -94,-4l-36 -69 -79 -3 -43 -82 41 -67 -29 -55 -78 -3 -37 -69 -78 -3 -44 -82 50 -80 78 3 33 -53 -37 -69 50 -80 78 3 42 -66 93 3c15,28 30,56 44,83l-41 66 29 56 62 2 42 -66 94 3c14,28 29,55 44,83l-42 66 37 69 -42 67zm-90 118l63 2 33 -53 -29 -55 -63 -2 -33 53 29 55zm-120 91l-34 53 30 55c21,1 41,2 62,2l34 -53 -30 -55c-21,-1 -41,-2 -62,-2zm-23 -15l-30 -55 -62 -2 -33 53 29 55c21,1 42,2 62,2l34 -53zm148 -211l62 2 34 -53 -30 -55 -62 -3 -33 54c9,18 19,36 29,55zm-24 13l-29 -56 -63 -2 -33 53 29 55c21,1 42,2 63,3l33 -53zm-1 -204l30 56 62 2 33 -53c-9,-19 -19,-37 -29,-56l-62 -2 -34 53zm-204 47l62 2 33 -53c-9,-18 -19,-37 -29,-55l-62 -2 -34 53c10,18 20,37 30,55zm-58 93l-63 -2 -33 53 29 55c21,1 42,1 63,2l33 -53c-10,-18 -19,-37 -29,-55zm-86 -17l-29 -55 -63 -2 -33 53 29 55c21,1 42,2 63,2l33 -53zm119 -267l29 56 63 2 33 -53c-10,-19 -19,-37 -29,-55l-63 -3 -33 53zm6 68l-30 -55 -62 -2 -34 53 30 55c21,1 41,2 62,3l34 -54z"/></g><text x="0" y="862" fill="#000000" font-size="5px" font-weight="bold" font-family="'Helvetica Neue', Helvetica, Arial-Unicode, Arial, Sans-serif">Created by sumhi_icon</text><text x="0" y="867" fill="#000000" font-size="5px" font-weight="bold" font-family="'Helvetica Neue', Helvetica, Arial-Unicode, Arial, Sans-serif">from the Noun Project</text></svg>