<?xml version="1.0" standalone="no"?><!DOCTYPE svg PUBLIC "-//W3C//DTD SVG 1.1//EN" "http://www.w3.org/Graphics/SVG/1.1/DTD/svg11.dtd"><svg t="1620987405773" class="icon" viewBox="0 0 1024 1024" version="1.1" xmlns="http://www.w3.org/2000/svg" p-id="2121" xmlns:xlink="http://www.w3.org/1999/xlink" width="16" height="16"><defs><style type="text/css"></style></defs><path d="M989.866667 648.533333h-153.6v-34.133333c0-58.026667-44.373333-102.4-102.4-102.4h-204.8V375.466667H682.666667c10.24 0 17.066667-6.826667 17.066666-17.066667v-341.333333c0-10.24-6.826667-17.066667-17.066666-17.066667H341.333333c-10.24 0-17.066667 6.826667-17.066666 17.066667v341.333333c0 10.24 6.826667 17.066667 17.066666 17.066667h153.6v136.533333h-204.8c-58.026667 0-102.4 44.373333-102.4 102.4v34.133333H34.133333c-10.24 0-17.066667 6.826667-17.066666 17.066667v341.333333c0 10.24 6.826667 17.066667 17.066666 17.066667h341.333334c10.24 0 17.066667-6.826667 17.066666-17.066667v-341.333333c0-10.24-6.826667-17.066667-17.066666-17.066667H221.866667v-34.133333c0-37.546667 30.72-68.266667 68.266666-68.266667h443.733334c37.546667 0 68.266667 30.72 68.266666 68.266667v34.133333H648.533333c-10.24 0-17.066667 6.826667-17.066666 17.066667v341.333333c0 10.24 6.826667 17.066667 17.066666 17.066667h341.333334c10.24 0 17.066667-6.826667 17.066666-17.066667v-341.333333c0-10.24-6.826667-17.066667-17.066666-17.066667z" fill="#dbdbdb" p-id="2122"></path></svg>