<?xml version="1.0" encoding="UTF-8"?> <!-- Generator: Adobe Illustrator 24.2.0, SVG Export Plug-In . SVG Version: 6.00 Build 0) --> <svg xmlns="http://www.w3.org/2000/svg" xmlns:xlink="http://www.w3.org/1999/xlink" version="1.1" x="0px" y="0px" viewBox="0 0 200 200" style="enable-background:new 0 0 200 200;" xml:space="preserve"> <style type="text/css"> .st0{fill:#29ABE2;} .st1{fill:none;stroke:#253B7D;stroke-width:3.0383;stroke-miterlimit:10;} .st2{fill:#C4E54B;} .st3{fill:none;stroke:#253B7D;stroke-width:3.0357;stroke-linecap:round;stroke-linejoin:round;stroke-miterlimit:10;} </style> <g id="レイヤー_1"> <g> <path class="st0" d="M139.5,70.5c0,1.7-1.4,3-3,3H66.5c-1.7,0-3-1.4-3-3V26.5c0-1.7,1.4-3,3-3h69.9c1.7,0,3,1.4,3,3V70.5z"></path> <path class="st1" d="M139.5,70.5c0,1.7-1.4,3-3,3H66.5c-1.7,0-3-1.4-3-3V26.5c0-1.7,1.4-3,3-3h69.9c1.7,0,3,1.4,3,3V70.5z"></path> </g> <g> <path class="st2" d="M88.5,173.5c0,1.7-1.4,3-3,3H15.5c-1.7,0-3-1.4-3-3v-43.9c0-1.7,1.4-3,3-3h69.9c1.7,0,3,1.4,3,3V173.5z"></path> <path class="st1" d="M88.5,173.5c0,1.7-1.4,3-3,3H15.5c-1.7,0-3-1.4-3-3v-43.9c0-1.7,1.4-3,3-3h69.9c1.7,0,3,1.4,3,3V173.5z"></path> </g> <g> <path class="st1" d="M189.5,173.5c0,1.7-1.4,3-3,3h-69.9c-1.7,0-3-1.4-3-3v-43.9c0-1.7,1.4-3,3-3h69.9c1.7,0,3,1.4,3,3V173.5z"></path> </g> <path class="st3" d="M50.5,126.5v-25 M151.5,126.5v-25 M63,42.5h76 M63,54.5h76 M12,145.5h76 M12,157.5h76 M113,145.5h76 M113,157.5h76 M101.5,101.5v-28 M50.5,101.5h101"></path> </g> <g id="レイヤー_2"> </g> </svg> 